<svg width="36" height="36" viewBox="0 0 36 36" fill="none" xmlns="http://www.w3.org/2000/svg">
<path d="M9.20991 6.972C11.5532 4.66416 14.711 3.37193 17.9999 3.37501C21.2939 3.37501 24.4559 4.6665 26.7899 6.972C28.9034 9.057 30.0044 11.391 30.2954 13.815C30.5849 16.218 30.0674 18.63 29.0804 20.892C27.1214 25.392 23.2274 29.484 19.4924 32.1465C19.0571 32.458 18.5352 32.6254 17.9999 32.6254C17.4646 32.6254 16.9427 32.458 16.5074 32.1465C12.7724 29.484 8.87841 25.3905 6.91791 20.892C5.93241 18.63 5.41641 16.218 5.70441 13.8135C5.99541 11.391 7.09641 9.0585 9.20991 6.972ZM13.8749 15C13.8749 13.906 14.3095 12.8568 15.0831 12.0832C15.8567 11.3096 16.9059 10.875 17.9999 10.875C19.0939 10.875 20.1431 11.3096 20.9167 12.0832C21.6903 12.8568 22.1249 13.906 22.1249 15C22.1249 16.094 21.6903 17.1432 20.9167 17.9168C20.1431 18.6904 19.0939 19.125 17.9999 19.125C16.9059 19.125 15.8567 18.6904 15.0831 17.9168C14.3095 17.1432 13.8749 16.094 13.8749 15Z" fill="#D84040"/>
<g clip-path="url(#clip0_718_6832)">
<path d="M18.8661 8.09863L24.6221 18.068C24.7099 18.22 24.7561 18.3924 24.7561 18.568C24.7561 18.7435 24.7099 18.9159 24.6221 19.068C24.5344 19.22 24.4081 19.3462 24.2561 19.434C24.1041 19.5218 23.9317 19.568 23.7561 19.568H12.2441C12.0686 19.568 11.8961 19.5218 11.7441 19.434C11.5921 19.3462 11.4659 19.22 11.3781 19.068C11.2903 18.9159 11.2441 18.7435 11.2441 18.568C11.2441 18.3924 11.2903 18.22 11.3781 18.068L17.1341 8.09863C17.5188 7.43197 18.4808 7.43197 18.8661 8.09863ZM18.0001 16C17.8233 16 17.6537 16.0702 17.5287 16.1952C17.4037 16.3203 17.3334 16.4898 17.3334 16.6666C17.3334 16.8434 17.4037 17.013 17.5287 17.138C17.6537 17.2631 17.8233 17.3333 18.0001 17.3333C18.1769 17.3333 18.3465 17.2631 18.4715 17.138C18.5965 17.013 18.6668 16.8434 18.6668 16.6666C18.6668 16.4898 18.5965 16.3203 18.4715 16.1952C18.3465 16.0702 18.1769 16 18.0001 16ZM18.0001 11.3333C17.8368 11.3333 17.6792 11.3933 17.5572 11.5018C17.4352 11.6103 17.3572 11.7598 17.3381 11.922L17.3334 12V14.6666C17.3336 14.8366 17.3987 15 17.5153 15.1235C17.632 15.2471 17.7914 15.3215 17.961 15.3314C18.1307 15.3414 18.2977 15.2862 18.428 15.1771C18.5583 15.0681 18.642 14.9134 18.6621 14.7446L18.6668 14.6666V12C18.6668 11.8232 18.5965 11.6536 18.4715 11.5286C18.3465 11.4035 18.1769 11.3333 18.0001 11.3333Z" fill="#FCFCFC"/>
</g>
<defs>
<clipPath id="clip0_718_6832">
<rect width="16" height="16" fill="white" transform="translate(10 6)"/>
</clipPath>
</defs>
</svg>
