<svg width="32" height="32" viewBox="0 0 32 32" fill="none" xmlns="http://www.w3.org/2000/svg">
<path d="M14.6667 18.3333H16V13M21.3333 12.6667V10.6667M12 22C14 24 18 24 20 22M10.6667 12.6667V10.6667M12.5333 28C9.54667 28 8.05333 28 6.912 27.4187C5.90851 26.9073 5.09265 26.0915 4.58133 25.088C4 23.9467 4 22.4533 4 19.4667M28 19.4667C28 22.4533 28 23.9467 27.4187 25.088C26.9073 26.0915 26.0915 26.9073 25.088 27.4187C23.9467 28 22.4533 28 19.4667 28M19.4667 4C22.4533 4 23.9467 4 25.088 4.58133C26.0915 5.09265 26.9073 5.90851 27.4187 6.912C28 8.05333 28 9.54667 28 12.5333M12.5333 4C9.54667 4 8.05333 4 6.912 4.58133C5.90851 5.09265 5.09265 5.90851 4.58133 6.912C4 8.05333 4 9.54667 4 12.5333" stroke="url(#paint0_linear_2294_31044)" stroke-width="1.5" stroke-linecap="round" stroke-linejoin="round"/>
<defs>
<linearGradient id="paint0_linear_2294_31044" x1="16" y1="4" x2="16" y2="28" gradientUnits="userSpaceOnUse">
<stop stop-color="#0F7A84"/>
<stop offset="1" stop-color="#33A59D"/>
</linearGradient>
</defs>
</svg>
