<svg width="26" height="26" viewBox="0 0 26 26" fill="none" xmlns="http://www.w3.org/2000/svg">
<path d="M4.5 8C6.433 8 8 6.433 8 4.5C8 2.567 6.433 1 4.5 1C2.567 1 1 2.567 1 4.5C1 6.433 2.567 8 4.5 8Z" fill="#D84040"/>
<path d="M20.8333 24.3333C22.7663 24.3333 24.3333 22.7663 24.3333 20.8333C24.3333 18.9003 22.7663 17.3333 20.8333 17.3333C18.9003 17.3333 17.3333 18.9003 17.3333 20.8333C17.3333 22.7663 18.9003 24.3333 20.8333 24.3333Z" fill="#D84040"/>
<path d="M12.0833 4.5H12.5901C16.1453 4.5 17.9228 4.5 18.5976 5.1385C19.1808 5.69043 19.4393 6.5035 19.2819 7.29091C19.0997 8.20185 17.6485 9.22833 14.746 11.2813L10.004 14.6354C7.10156 16.6883 5.65032 17.7148 5.46814 18.6258C5.31067 19.4132 5.56915 20.2262 6.15242 20.7782C6.82719 21.4167 8.60475 21.4167 12.1599 21.4167H13.25M8 4.5C8 6.433 6.433 8 4.5 8C2.567 8 1 6.433 1 4.5C1 2.567 2.567 1 4.5 1C6.433 1 8 2.567 8 4.5ZM24.3333 20.8333C24.3333 22.7663 22.7663 24.3333 20.8333 24.3333C18.9003 24.3333 17.3333 22.7663 17.3333 20.8333C17.3333 18.9003 18.9003 17.3333 20.8333 17.3333C22.7663 17.3333 24.3333 18.9003 24.3333 20.8333Z" stroke="#D84040" stroke-width="2" stroke-linecap="round" stroke-linejoin="round"/>
</svg>
