<svg width="28" height="28" viewBox="0 0 28 28" fill="none" xmlns="http://www.w3.org/2000/svg">
<path d="M13.4173 5.8335H13.9241C17.4792 5.8335 19.2568 5.8335 19.9316 6.472C20.5148 7.02392 20.7733 7.83699 20.6158 8.62441C20.4337 9.53535 18.9824 10.5618 16.08 12.6148L11.338 15.9689C8.43554 18.0218 6.9843 19.0483 6.80213 19.9593C6.64465 20.7467 6.90314 21.5597 7.48641 22.1117C8.16118 22.7502 9.93874 22.7502 13.4939 22.7502H14.584M9.33398 5.8335C9.33398 7.76649 7.76698 9.3335 5.83398 9.3335C3.90099 9.3335 2.33398 7.76649 2.33398 5.8335C2.33398 3.9005 3.90099 2.3335 5.83398 2.3335C7.76698 2.3335 9.33398 3.9005 9.33398 5.8335ZM25.6673 22.1668C25.6673 24.0998 24.1003 25.6668 22.1673 25.6668C20.2343 25.6668 18.6673 24.0998 18.6673 22.1668C18.6673 20.2338 20.2343 18.6668 22.1673 18.6668C24.1003 18.6668 25.6673 20.2338 25.6673 22.1668Z" stroke="#B0B0B0" stroke-width="2" stroke-linecap="round" stroke-linejoin="round"/>
</svg>
