<svg width="28" height="28" viewBox="0 0 28 28" fill="none" xmlns="http://www.w3.org/2000/svg">
<path d="M5.83325 9.33301C7.76625 9.33301 9.33325 7.766 9.33325 5.83301C9.33325 3.90001 7.76625 2.33301 5.83325 2.33301C3.90026 2.33301 2.33325 3.90001 2.33325 5.83301C2.33325 7.766 3.90026 9.33301 5.83325 9.33301Z" fill="white"/>
<path d="M22.1666 25.6663C24.0996 25.6663 25.6666 24.0993 25.6666 22.1663C25.6666 20.2333 24.0996 18.6663 22.1666 18.6663C20.2336 18.6663 18.6666 20.2333 18.6666 22.1663C18.6666 24.0993 20.2336 25.6663 22.1666 25.6663Z" fill="white"/>
<path d="M13.4166 5.83301H13.9234C17.4785 5.83301 19.2561 5.83301 19.9308 6.47151C20.5141 7.02344 20.7726 7.8365 20.6151 8.62392C20.4329 9.53486 18.9817 10.5613 16.0793 12.6143L11.3373 15.9684C8.43481 18.0213 6.98357 19.0478 6.80139 19.9588C6.64392 20.7462 6.90241 21.5592 7.48568 22.1112C8.16044 22.7497 9.938 22.7497 13.4931 22.7497H14.5833M9.33325 5.83301C9.33325 7.766 7.76625 9.33301 5.83325 9.33301C3.90026 9.33301 2.33325 7.766 2.33325 5.83301C2.33325 3.90001 3.90026 2.33301 5.83325 2.33301C7.76625 2.33301 9.33325 3.90001 9.33325 5.83301ZM25.6666 22.1663C25.6666 24.0993 24.0996 25.6663 22.1666 25.6663C20.2336 25.6663 18.6666 24.0993 18.6666 22.1663C18.6666 20.2333 20.2336 18.6663 22.1666 18.6663C24.0996 18.6663 25.6666 20.2333 25.6666 22.1663Z" stroke="white" stroke-width="2" stroke-linecap="round" stroke-linejoin="round"/>
</svg>
