<svg width="28" height="28" viewBox="0 0 28 28" fill="none" xmlns="http://www.w3.org/2000/svg">
<path d="M21 21.5834C20.5358 21.5834 20.0907 21.399 19.7625 21.0709C19.4343 20.7427 19.25 20.2975 19.25 19.8334C19.25 19.3693 19.4343 18.9242 19.7625 18.596C20.0907 18.2678 20.5358 18.0834 21 18.0834C21.4641 18.0834 21.9092 18.2678 22.2374 18.596C22.5656 18.9242 22.75 19.3693 22.75 19.8334C22.75 20.2975 22.5656 20.7427 22.2374 21.0709C21.9092 21.399 21.4641 21.5834 21 21.5834ZM22.75 11.0834L25.0366 14.0001H19.8333V11.0834M6.99996 21.5834C6.53583 21.5834 6.09071 21.399 5.76252 21.0709C5.43433 20.7427 5.24996 20.2975 5.24996 19.8334C5.24996 19.3693 5.43433 18.9242 5.76252 18.596C6.09071 18.2678 6.53583 18.0834 6.99996 18.0834C7.46409 18.0834 7.90921 18.2678 8.2374 18.596C8.56558 18.9242 8.74996 19.3693 8.74996 19.8334C8.74996 20.2975 8.56558 20.7427 8.2374 21.0709C7.90921 21.399 7.46409 21.5834 6.99996 21.5834ZM23.3333 9.33341H19.8333V4.66675H3.49996C2.20496 4.66675 1.16663 5.70508 1.16663 7.00008V19.8334H3.49996C3.49996 20.7617 3.86871 21.6519 4.52509 22.3083C5.18146 22.9647 6.0717 23.3334 6.99996 23.3334C7.92822 23.3334 8.81846 22.9647 9.47483 22.3083C10.1312 21.6519 10.5 20.7617 10.5 19.8334H17.5C17.5 20.7617 17.8687 21.6519 18.5251 22.3083C19.1815 22.9647 20.0717 23.3334 21 23.3334C21.9282 23.3334 22.8185 22.9647 23.4748 22.3083C24.1312 21.6519 24.5 20.7617 24.5 19.8334H26.8333V14.0001L23.3333 9.33341Z" fill="#D84040"/>
</svg>
