<svg width="28" height="28" viewBox="0 0 28 28" fill="none" xmlns="http://www.w3.org/2000/svg">
<path d="M3.49963 5.16675H19.3336V9.83374H23.0836L26.3336 14.1667V19.3337H23.9996V19.8337C23.9995 21.4941 22.66 22.8337 20.9996 22.8337C19.3394 22.8336 17.9998 21.494 17.9996 19.8337V19.3337H9.99963V19.8337C9.99946 21.4941 8.66005 22.8337 6.99963 22.8337C5.33937 22.8336 3.99981 21.494 3.99963 19.8337V19.3337H1.66663V6.99976L1.67639 6.81128C1.76975 5.88256 2.54472 5.16691 3.49963 5.16675ZM6.99963 17.5837C5.75531 17.5839 4.74963 18.5894 4.74963 19.8337C4.74981 21.078 5.75542 22.0836 6.99963 22.0837C8.244 22.0837 9.24946 21.0781 9.24963 19.8337C9.24963 18.5893 8.24411 17.5837 6.99963 17.5837ZM20.9996 17.5837C19.7553 17.5839 18.7496 18.5894 18.7496 19.8337C18.7498 21.078 19.7554 22.0836 20.9996 22.0837C22.244 22.0837 23.2495 21.0781 23.2496 19.8337C23.2496 18.5893 22.2441 17.5837 20.9996 17.5837ZM2.99963 17.9998H4.60901L4.75842 17.8347C5.3103 17.2228 6.11062 16.8338 6.99963 16.8337C7.88886 16.8337 8.68987 17.2226 9.24182 17.8347L9.39124 17.9998H17.9996V6.49976H2.99963V17.9998ZM19.3336 14.4998H26.0641L25.4303 13.6912L23.1432 10.7751L22.9938 10.5837H19.3336V14.4998Z" fill="#B0B0B0" stroke="#B0B0B0"/>
</svg>
