<svg width="24" height="24" viewBox="0 0 24 24" fill="none" xmlns="http://www.w3.org/2000/svg">
<path fill-rule="evenodd" clip-rule="evenodd" d="M16 5C19.3137 5 22 7.68631 22 11C22 14.3137 19.3137 17 16 17H8C4.68631 17 2 14.3137 2 11C2 7.68631 4.68631 5 8 5H16ZM16 7.00002H8C5.79087 7.00002 4.00002 8.79087 4.00002 11C4.00002 13.1422 5.68395 14.8911 7.80036 14.9951L8 15H16C18.2091 15 20 13.2091 20 11C20 8.85781 18.316 7.10891 16.1997 7.00489L16 7.00002ZM12 8C13.6569 8 15 9.34316 15 11C15 12.6568 13.6569 14 12 14C10.3431 14 8.99998 12.6568 8.99998 11C8.99998 9.34316 10.3431 8 12 8ZM12 10C11.4477 10 11 10.4477 11 11C11 11.5523 11.4477 12 12 12C12.5523 12 13 11.5523 13 11C13 10.4477 12.5523 10 12 10ZM18 18V20H5.99998V18H18Z" fill="#24C424"/>
</svg>
